<svg xmlns="http://www.w3.org/2000/svg" xmlns:xlink="http://www.w3.org/1999/xlink" width="138" zoomAndPan="magnify" viewBox="0 0 103.5 51.749998" height="69" preserveAspectRatio="xMidYMid meet" version="1.0"><defs><clipPath id="1e4d32c12c"><path d="M 25.527344 0 L 98.671875 0 L 98.671875 31 L 25.527344 31 Z M 25.527344 0 " clip-rule="nonzero"/></clipPath><clipPath id="7c4ce5696b"><path d="M 50.804688 -22.332031 L 98.375 7.648438 L 68.257812 54.996094 L 20.6875 25.015625 Z M 50.804688 -22.332031 " clip-rule="nonzero"/></clipPath><clipPath id="86aa50f79b"><path d="M 50.804688 -22.332031 L 98.375 7.648438 L 68.257812 54.996094 L 20.6875 25.015625 Z M 50.804688 -22.332031 " clip-rule="nonzero"/></clipPath><clipPath id="d9f225efe8"><path d="M 5.1875 35.671875 L 98.671875 35.671875 L 98.671875 50.976562 L 5.1875 50.976562 Z M 5.1875 35.671875 " clip-rule="nonzero"/></clipPath><clipPath id="e22954a75d"><path d="M 9.605469 35.671875 L 94.257812 35.671875 C 95.429688 35.671875 96.550781 36.136719 97.378906 36.957031 C 98.207031 37.78125 98.671875 38.902344 98.671875 40.0625 L 98.671875 46.574219 C 98.671875 47.742188 98.207031 48.863281 97.378906 49.6875 C 96.550781 50.511719 95.429688 50.976562 94.257812 50.976562 L 9.605469 50.976562 C 8.433594 50.976562 7.308594 50.511719 6.480469 49.6875 C 5.652344 48.863281 5.1875 47.742188 5.1875 46.574219 L 5.1875 40.0625 C 5.1875 38.902344 5.652344 37.78125 6.480469 36.957031 C 7.308594 36.136719 8.433594 35.671875 9.605469 35.671875 Z M 9.605469 35.671875 " clip-rule="nonzero"/></clipPath></defs><path fill="#ffffff" d="M 12.546875 14.707031 C 12.3125 14.707031 12.128906 14.660156 11.988281 14.566406 C 11.847656 14.476562 11.738281 14.371094 11.660156 14.242188 C 11.578125 14.121094 11.527344 14.011719 11.496094 13.917969 C 11.460938 13.824219 11.449219 13.777344 11.449219 13.777344 C 11.359375 13.007812 11.292969 12.125 11.265625 11.132812 C 11.230469 10.128906 11.21875 9.089844 11.21875 8.019531 C 11.230469 6.941406 11.253906 5.878906 11.289062 4.839844 C 11.335938 3.808594 11.394531 2.84375 11.472656 1.960938 C 11.472656 1.960938 11.480469 1.925781 11.496094 1.847656 C 11.507812 1.769531 11.542969 1.683594 11.589844 1.589844 C 11.648438 1.484375 11.753906 1.394531 11.894531 1.3125 C 12.035156 1.21875 12.226562 1.171875 12.476562 1.171875 C 12.757812 1.191406 12.972656 1.253906 13.128906 1.359375 C 13.28125 1.453125 13.394531 1.566406 13.457031 1.707031 C 13.515625 1.835938 13.550781 1.949219 13.550781 2.054688 C 13.5625 2.148438 13.574219 2.195312 13.574219 2.195312 C 13.507812 2.769531 13.464844 3.4375 13.433594 4.191406 C 13.417969 4.949219 13.398438 5.746094 13.386719 6.582031 C 13.386719 7.417969 13.386719 8.269531 13.386719 9.136719 C 13.398438 9.988281 13.421875 10.824219 13.457031 11.644531 C 13.484375 12.449219 13.515625 13.199219 13.550781 13.894531 C 13.550781 13.894531 13.539062 13.941406 13.527344 14.035156 C 13.527344 14.117188 13.492188 14.207031 13.433594 14.3125 C 13.371094 14.421875 13.269531 14.515625 13.128906 14.589844 C 12.992188 14.671875 12.792969 14.707031 12.546875 14.707031 Z M 16.511719 2.84375 C 15.917969 2.769531 15.300781 2.714844 14.648438 2.683594 C 13.992188 2.636719 13.316406 2.605469 12.617188 2.589844 C 11.929688 2.578125 11.253906 2.582031 10.589844 2.613281 C 9.917969 2.628906 9.269531 2.660156 8.652344 2.703125 C 8.652344 2.703125 8.613281 2.703125 8.535156 2.703125 C 8.453125 2.703125 8.355469 2.699219 8.230469 2.683594 C 8.105469 2.671875 7.980469 2.636719 7.859375 2.589844 C 7.75 2.53125 7.648438 2.449219 7.554688 2.355469 C 7.460938 2.253906 7.398438 2.117188 7.371094 1.960938 C 7.335938 1.792969 7.347656 1.65625 7.394531 1.542969 C 7.449219 1.421875 7.539062 1.328125 7.648438 1.265625 C 7.753906 1.191406 7.863281 1.136719 7.976562 1.101562 C 8.082031 1.074219 8.167969 1.058594 8.230469 1.058594 C 8.308594 1.046875 8.347656 1.035156 8.347656 1.035156 C 9.703125 0.882812 11.039062 0.789062 12.359375 0.753906 C 13.695312 0.726562 15.019531 0.796875 16.324219 0.964844 C 16.324219 0.964844 16.359375 0.976562 16.441406 0.988281 C 16.535156 1.003906 16.636719 1.046875 16.746094 1.101562 C 16.867188 1.148438 16.984375 1.21875 17.097656 1.3125 C 17.199219 1.394531 17.292969 1.496094 17.375 1.636719 C 17.453125 1.765625 17.492188 1.910156 17.492188 2.078125 C 17.476562 2.28125 17.410156 2.4375 17.304688 2.542969 C 17.210938 2.652344 17.101562 2.726562 16.980469 2.773438 C 16.851562 2.808594 16.746094 2.832031 16.652344 2.84375 C 16.558594 2.84375 16.511719 2.84375 16.511719 2.84375 Z M 16.511719 2.84375 " fill-opacity="1" fill-rule="nonzero"/><path fill="#ffffff" d="M 28.53125 14.453125 C 28.300781 14.40625 28.113281 14.324219 27.972656 14.195312 C 27.84375 14.074219 27.761719 13.953125 27.714844 13.824219 C 27.667969 13.703125 27.632812 13.605469 27.621094 13.523438 C 27.621094 13.429688 27.621094 13.382812 27.621094 13.382812 C 27.714844 12.703125 27.792969 12.09375 27.855469 11.550781 C 27.914062 10.992188 27.9375 10.476562 27.925781 9.996094 C 27.925781 9.5 27.863281 9.019531 27.738281 8.554688 C 27.519531 7.738281 27.226562 7.132812 26.851562 6.746094 C 26.492188 6.34375 26.09375 6.136719 25.664062 6.117188 C 25.160156 6.226562 24.714844 6.4375 24.3125 6.746094 C 23.902344 7.039062 23.546875 7.40625 23.238281 7.835938 C 22.941406 8.269531 22.679688 8.730469 22.445312 9.207031 C 22.222656 9.667969 22.03125 10.121094 21.863281 10.550781 C 21.6875 10.96875 21.546875 11.328125 21.441406 11.621094 C 21.3125 11.871094 21.214844 12.03125 21.136719 12.105469 C 21.074219 12.171875 21.023438 12.164062 20.976562 12.085938 C 20.929688 11.992188 20.894531 11.886719 20.882812 11.757812 C 20.863281 11.636719 20.847656 11.519531 20.835938 11.410156 C 20.835938 11.289062 20.824219 11.21875 20.8125 11.203125 C 20.8125 11.191406 20.800781 11.261719 20.789062 11.410156 L 20.230469 9.484375 L 20.90625 8.113281 C 21.214844 7.464844 21.5625 6.902344 21.953125 6.417969 C 22.339844 5.945312 22.746094 5.550781 23.167969 5.234375 C 23.585938 4.910156 24.007812 4.667969 24.425781 4.492188 C 24.859375 4.324219 25.273438 4.238281 25.664062 4.238281 C 26.390625 4.300781 27.039062 4.515625 27.597656 4.886719 C 28.171875 5.257812 28.65625 5.757812 29.046875 6.375 C 29.449219 6.976562 29.75 7.667969 29.957031 8.4375 C 30.125 9.355469 30.1875 10.261719 30.140625 11.15625 C 30.09375 12.054688 29.980469 12.988281 29.792969 13.964844 C 29.792969 13.964844 29.769531 14.003906 29.722656 14.082031 C 29.6875 14.144531 29.617188 14.214844 29.511719 14.289062 C 29.417969 14.371094 29.289062 14.429688 29.140625 14.476562 C 28.980469 14.523438 28.777344 14.515625 28.53125 14.453125 Z M 20.742188 14.707031 C 20.507812 14.707031 20.308594 14.660156 20.160156 14.566406 C 20 14.476562 19.878906 14.371094 19.785156 14.242188 C 19.703125 14.121094 19.644531 14.023438 19.597656 13.941406 C 19.5625 13.847656 19.550781 13.800781 19.550781 13.800781 C 19.488281 13.1875 19.441406 12.472656 19.414062 11.667969 C 19.378906 10.847656 19.355469 9.996094 19.34375 9.113281 C 19.34375 8.21875 19.347656 7.320312 19.367188 6.417969 C 19.378906 5.507812 19.402344 4.625 19.4375 3.773438 C 19.480469 2.925781 19.535156 2.148438 19.597656 1.453125 C 19.597656 1.453125 19.605469 1.417969 19.621094 1.335938 C 19.652344 1.261719 19.699219 1.171875 19.761719 1.078125 C 19.820312 0.976562 19.925781 0.886719 20.066406 0.824219 C 20.21875 0.75 20.402344 0.71875 20.625 0.730469 C 20.871094 0.75 21.070312 0.8125 21.207031 0.917969 C 21.359375 1.011719 21.472656 1.125 21.535156 1.265625 C 21.59375 1.394531 21.632812 1.507812 21.652344 1.613281 C 21.679688 1.707031 21.699219 1.753906 21.699219 1.753906 C 21.652344 2.308594 21.609375 2.976562 21.582031 3.75 C 21.546875 4.527344 21.523438 5.351562 21.511719 6.234375 C 21.511719 7.117188 21.511719 8.015625 21.511719 8.925781 C 21.511719 9.828125 21.515625 10.703125 21.535156 11.550781 C 21.5625 12.402344 21.605469 13.1875 21.652344 13.894531 C 21.652344 13.894531 21.640625 13.933594 21.628906 14.011719 C 21.609375 14.09375 21.570312 14.183594 21.511719 14.289062 C 21.464844 14.398438 21.378906 14.5 21.253906 14.589844 C 21.125 14.671875 20.957031 14.707031 20.742188 14.707031 Z M 20.742188 14.707031 " fill-opacity="1" fill-rule="nonzero"/><path fill="#ffffff" d="M 36.464844 14.917969 C 35.511719 14.757812 34.742188 14.5 34.15625 14.125 C 33.578125 13.742188 33.132812 13.292969 32.824219 12.78125 C 32.511719 12.269531 32.300781 11.722656 32.195312 11.132812 C 32.085938 10.546875 32.03125 9.964844 32.03125 9.390625 C 32.015625 8.742188 32.132812 8.089844 32.382812 7.441406 C 32.628906 6.789062 32.996094 6.199219 33.476562 5.652344 C 33.957031 5.113281 34.539062 4.695312 35.226562 4.398438 C 35.910156 4.09375 36.675781 3.957031 37.511719 4.003906 C 38.363281 4.070312 39.058594 4.230469 39.589844 4.492188 C 40.132812 4.757812 40.550781 5.085938 40.847656 5.46875 C 41.140625 5.855469 41.339844 6.269531 41.433594 6.699219 C 41.535156 7.132812 41.601562 7.546875 41.617188 7.929688 C 41.601562 8.640625 41.410156 9.238281 41.035156 9.714844 C 40.675781 10.199219 40.109375 10.527344 39.332031 10.714844 C 39.101562 10.75 38.800781 10.777344 38.445312 10.808594 C 38.101562 10.824219 37.730469 10.832031 37.328125 10.832031 C 36.9375 10.832031 36.546875 10.824219 36.160156 10.808594 C 35.789062 10.796875 35.4375 10.777344 35.109375 10.761719 C 34.785156 10.75 34.515625 10.738281 34.316406 10.738281 C 34.132812 10.738281 34.039062 10.738281 34.039062 10.738281 C 34.085938 11.125 34.214844 11.515625 34.433594 11.898438 C 34.652344 12.289062 34.960938 12.605469 35.367188 12.851562 C 35.769531 13.082031 36.28125 13.222656 36.90625 13.269531 C 37.449219 13.285156 37.945312 13.28125 38.398438 13.246094 C 38.867188 13.214844 39.269531 13.175781 39.613281 13.128906 C 39.96875 13.070312 40.242188 13.011719 40.429688 12.964844 C 40.617188 12.917969 40.710938 12.898438 40.710938 12.898438 C 40.710938 12.898438 40.742188 12.898438 40.824219 12.898438 C 40.917969 12.886719 41.019531 12.886719 41.128906 12.898438 C 41.234375 12.914062 41.34375 12.953125 41.457031 13.011719 C 41.558594 13.078125 41.652344 13.191406 41.734375 13.359375 C 41.828125 13.5 41.859375 13.628906 41.828125 13.730469 C 41.8125 13.84375 41.769531 13.933594 41.710938 14.011719 C 41.648438 14.09375 41.59375 14.148438 41.546875 14.195312 C 41.503906 14.230469 41.480469 14.242188 41.480469 14.242188 C 41.480469 14.242188 41.320312 14.300781 41.011719 14.40625 C 40.714844 14.5 40.320312 14.601562 39.824219 14.707031 C 39.320312 14.828125 38.777344 14.921875 38.191406 14.984375 C 37.59375 15.042969 37.023438 15.019531 36.464844 14.917969 Z M 34.039062 9.390625 L 38.285156 9.34375 C 38.285156 9.34375 38.328125 9.339844 38.421875 9.320312 C 38.527344 9.292969 38.65625 9.261719 38.796875 9.230469 C 38.949219 9.183594 39.105469 9.105469 39.261719 8.996094 C 39.414062 8.875 39.542969 8.71875 39.636719 8.53125 C 39.742188 8.335938 39.800781 8.085938 39.800781 7.789062 C 39.800781 7.277344 39.707031 6.859375 39.519531 6.535156 C 39.34375 6.199219 39.058594 5.957031 38.65625 5.816406 C 38.25 5.664062 37.6875 5.605469 36.976562 5.652344 C 36.476562 5.6875 36.03125 5.839844 35.648438 6.117188 C 35.257812 6.394531 34.9375 6.738281 34.691406 7.140625 C 34.441406 7.546875 34.253906 7.945312 34.132812 8.347656 C 34.019531 8.753906 33.992188 9.101562 34.039062 9.390625 Z M 34.039062 9.390625 " fill-opacity="1" fill-rule="nonzero"/><g clip-path="url(#1e4d32c12c)"><g clip-path="url(#7c4ce5696b)"><g clip-path="url(#86aa50f79b)"><path fill="#891005" d="M 87.808594 0.988281 L 87.769531 0.964844 C 87.214844 0.609375 86.613281 0.378906 85.964844 0.265625 C 85.320312 0.15625 84.671875 0.167969 84.03125 0.3125 C 83.390625 0.464844 82.800781 0.726562 82.269531 1.101562 C 81.734375 1.484375 81.289062 1.949219 80.945312 2.507812 C 80.597656 3.066406 80.367188 3.664062 80.265625 4.3125 C 80.160156 4.957031 80.1875 5.601562 80.339844 6.234375 C 80.492188 6.871094 80.765625 7.453125 81.148438 7.980469 C 81.539062 8.507812 82.011719 8.945312 82.578125 9.285156 L 84.222656 10.285156 C 83.972656 10.121094 83.703125 10.074219 83.414062 10.144531 L 44.25 18.925781 C 44.222656 18.9375 44.199219 18.949219 44.175781 18.960938 L 39.234375 14.363281 L 25.574219 17.417969 L 30.902344 22.390625 C 31.246094 22.710938 31.335938 23.085938 31.160156 23.523438 L 28.472656 30.285156 L 42.140625 27.226562 L 44.601562 21.035156 C 44.640625 21.035156 44.683594 21.035156 44.722656 21.027344 L 83.886719 12.246094 C 84.175781 12.175781 84.398438 12.019531 84.554688 11.769531 L 83.5 13.371094 C 83.136719 13.917969 82.894531 14.515625 82.769531 15.160156 C 82.648438 15.804688 82.660156 16.449219 82.792969 17.085938 C 82.933594 17.726562 83.191406 18.316406 83.5625 18.855469 C 83.9375 19.398438 84.402344 19.835938 84.957031 20.191406 C 85.511719 20.546875 86.117188 20.777344 86.765625 20.886719 C 87.414062 21.003906 88.058594 20.988281 88.703125 20.839844 C 89.34375 20.695312 89.933594 20.429688 90.46875 20.050781 C 91.003906 19.667969 91.441406 19.199219 91.792969 18.640625 L 98.527344 7.871094 Z M 84.5625 11.765625 C 84.71875 11.515625 84.765625 11.242188 84.703125 10.957031 C 84.636719 10.667969 84.480469 10.441406 84.230469 10.285156 L 84.265625 10.308594 C 84.507812 10.464844 84.660156 10.679688 84.71875 10.957031 C 84.78125 11.242188 84.734375 11.496094 84.574219 11.742188 Z M 84.5625 11.765625 " fill-opacity="1" fill-rule="nonzero"/></g></g></g><path fill="#ffffff" d="M 11.503906 31.011719 C 11.128906 31.011719 10.832031 30.945312 10.617188 30.804688 C 10.394531 30.652344 10.230469 30.480469 10.125 30.292969 C 10.015625 30.109375 9.941406 29.945312 9.894531 29.804688 C 9.859375 29.667969 9.847656 29.597656 9.847656 29.597656 C 9.765625 28.84375 9.707031 28.03125 9.660156 27.160156 C 9.625 26.292969 9.613281 25.40625 9.613281 24.488281 C 9.613281 23.5625 9.636719 22.644531 9.683594 21.726562 C 9.730469 20.796875 9.789062 19.917969 9.871094 19.082031 C 9.871094 19.082031 9.875 19.023438 9.894531 18.894531 C 9.921875 18.773438 9.984375 18.640625 10.078125 18.5 C 10.171875 18.347656 10.3125 18.214844 10.5 18.105469 C 10.699219 18 10.972656 17.941406 11.316406 17.941406 C 11.765625 17.941406 12.109375 18.023438 12.34375 18.175781 C 12.585938 18.316406 12.761719 18.488281 12.855469 18.6875 C 12.949219 18.890625 12.996094 19.070312 12.996094 19.21875 C 13.007812 19.359375 13.019531 19.429688 13.019531 19.429688 C 12.953125 20.003906 12.90625 20.625 12.878906 21.285156 C 12.859375 21.9375 12.84375 22.625 12.832031 23.351562 C 12.832031 24.082031 12.832031 24.828125 12.832031 25.582031 C 12.84375 26.324219 12.867188 27.0625 12.902344 27.785156 C 12.929688 28.5 12.960938 29.179688 12.996094 29.828125 C 12.996094 29.828125 12.976562 29.894531 12.949219 30.015625 C 12.929688 30.144531 12.878906 30.28125 12.785156 30.433594 C 12.691406 30.589844 12.539062 30.730469 12.34375 30.851562 C 12.136719 30.976562 11.859375 31.03125 11.503906 31.011719 Z M 15.5625 20.425781 C 15 20.367188 14.382812 20.324219 13.71875 20.289062 C 13.046875 20.257812 12.355469 20.234375 11.640625 20.21875 C 10.941406 20.207031 10.253906 20.195312 9.589844 20.195312 C 8.9375 20.195312 8.332031 20.207031 7.769531 20.21875 C 7.769531 20.21875 7.710938 20.21875 7.605469 20.21875 C 7.496094 20.21875 7.355469 20.207031 7.1875 20.171875 C 7.011719 20.125 6.835938 20.066406 6.652344 19.984375 C 6.476562 19.910156 6.332031 19.800781 6.207031 19.660156 C 6.078125 19.511719 5.996094 19.308594 5.949219 19.058594 C 5.933594 18.8125 5.960938 18.609375 6.042969 18.453125 C 6.121094 18.285156 6.230469 18.164062 6.371094 18.082031 C 6.523438 17.988281 6.675781 17.917969 6.8125 17.875 C 6.964844 17.828125 7.101562 17.796875 7.210938 17.78125 C 7.316406 17.769531 7.375 17.757812 7.375 17.757812 C 8.679688 17.605469 9.976562 17.503906 11.269531 17.457031 C 12.574219 17.410156 13.863281 17.46875 15.140625 17.617188 C 15.140625 17.617188 15.195312 17.640625 15.304688 17.6875 C 15.425781 17.722656 15.574219 17.773438 15.746094 17.851562 C 15.933594 17.914062 16.101562 18.007812 16.261719 18.128906 C 16.429688 18.238281 16.574219 18.382812 16.703125 18.570312 C 16.828125 18.753906 16.890625 18.976562 16.890625 19.21875 C 16.871094 19.535156 16.796875 19.769531 16.65625 19.941406 C 16.527344 20.113281 16.382812 20.234375 16.214844 20.3125 C 16.039062 20.375 15.886719 20.414062 15.746094 20.425781 C 15.621094 20.425781 15.5625 20.425781 15.5625 20.425781 Z M 15.5625 20.425781 " fill-opacity="1" fill-rule="nonzero"/><path fill="#ffffff" d="M 20.011719 29.621094 C 19.734375 29.65625 19.511719 29.585938 19.359375 29.410156 C 19.203125 29.226562 19.085938 29.015625 19.011719 28.785156 C 18.945312 28.539062 18.90625 28.320312 18.894531 28.132812 C 18.875 27.9375 18.871094 27.832031 18.871094 27.832031 C 18.789062 27.460938 18.730469 27.171875 18.683594 26.949219 C 18.648438 26.734375 18.636719 26.566406 18.636719 26.441406 C 18.648438 26.300781 18.667969 26.171875 18.683594 26.046875 C 18.714844 25.90625 18.730469 25.738281 18.730469 25.535156 C 18.777344 24.714844 18.964844 23.992188 19.289062 23.351562 C 19.617188 22.703125 20.042969 22.167969 20.574219 21.75 C 21.097656 21.332031 21.691406 21.042969 22.347656 20.867188 C 23.121094 20.71875 23.816406 20.671875 24.421875 20.730469 C 25.027344 20.792969 25.554688 20.933594 26.007812 21.148438 C 26.472656 21.367188 26.851562 21.609375 27.152344 21.890625 C 27.152344 21.890625 27.179688 21.929688 27.246094 22.003906 C 27.320312 22.085938 27.394531 22.191406 27.476562 22.332031 C 27.570312 22.457031 27.640625 22.609375 27.6875 22.796875 C 27.734375 22.96875 27.722656 23.144531 27.664062 23.328125 C 27.617188 23.503906 27.476562 23.6875 27.246094 23.886719 C 27.039062 24.058594 26.808594 24.140625 26.542969 24.140625 C 26.292969 24.140625 26.042969 24.105469 25.796875 24.027344 C 25.566406 23.949219 25.367188 23.875 25.214844 23.792969 C 25.058594 23.699219 24.980469 23.652344 24.980469 23.652344 C 24.75 23.515625 24.445312 23.460938 24.070312 23.492188 C 23.710938 23.507812 23.347656 23.621094 22.976562 23.816406 C 22.613281 24.035156 22.304688 24.296875 22.042969 24.605469 C 21.792969 24.917969 21.632812 25.277344 21.578125 25.695312 C 21.542969 26.023438 21.511719 26.3125 21.484375 26.554688 C 21.464844 26.804688 21.449219 27.039062 21.4375 27.253906 C 21.417969 27.457031 21.414062 27.671875 21.414062 27.902344 C 21.414062 28.121094 21.417969 28.382812 21.4375 28.691406 C 21.4375 28.691406 21.394531 28.761719 21.320312 28.902344 C 21.253906 29.039062 21.121094 29.191406 20.921875 29.339844 C 20.71875 29.480469 20.414062 29.574219 20.011719 29.621094 Z M 20.199219 31.058594 C 19.886719 31.03125 19.628906 30.960938 19.429688 30.851562 C 19.226562 30.730469 19.0625 30.589844 18.941406 30.433594 C 18.8125 30.28125 18.71875 30.148438 18.660156 30.039062 C 18.613281 29.917969 18.589844 29.851562 18.589844 29.851562 C 18.507812 29.097656 18.449219 28.402344 18.402344 27.761719 C 18.367188 27.128906 18.359375 26.507812 18.359375 25.90625 C 18.359375 25.300781 18.367188 24.667969 18.402344 24.003906 C 18.449219 23.324219 18.503906 22.558594 18.566406 21.703125 C 18.566406 21.703125 18.578125 21.652344 18.613281 21.542969 C 18.644531 21.417969 18.707031 21.285156 18.800781 21.148438 C 18.894531 21.007812 19.039062 20.886719 19.242188 20.773438 C 19.460938 20.671875 19.738281 20.625 20.082031 20.636719 C 20.457031 20.636719 20.75 20.71875 20.96875 20.867188 C 21.1875 21.023438 21.34375 21.191406 21.4375 21.378906 C 21.542969 21.566406 21.609375 21.726562 21.644531 21.867188 C 21.691406 22.003906 21.714844 22.074219 21.714844 22.074219 C 21.652344 22.761719 21.609375 23.398438 21.597656 24.003906 C 21.582031 24.605469 21.578125 25.210938 21.578125 25.8125 C 21.578125 26.40625 21.582031 27.03125 21.597656 27.695312 C 21.609375 28.34375 21.644531 29.074219 21.691406 29.875 C 21.691406 29.875 21.675781 29.941406 21.644531 30.0625 C 21.628906 30.1875 21.578125 30.335938 21.484375 30.503906 C 21.402344 30.675781 21.253906 30.816406 21.039062 30.921875 C 20.835938 31.03125 20.554688 31.078125 20.199219 31.058594 Z M 20.199219 31.058594 " fill-opacity="1" fill-rule="nonzero"/><path fill="#ffffff" d="M 33.175781 30.921875 C 32.847656 30.816406 32.5 30.660156 32.125 30.457031 C 31.753906 30.242188 31.386719 29.96875 31.03125 29.644531 C 30.683594 29.308594 30.363281 28.890625 30.074219 28.390625 C 29.792969 27.878906 29.566406 27.269531 29.398438 26.554688 C 29.257812 25.847656 29.1875 25.152344 29.1875 24.464844 C 29.1875 23.789062 29.257812 22.992188 29.398438 22.074219 C 29.398438 22.074219 29.410156 22 29.441406 21.84375 C 29.488281 21.675781 29.566406 21.507812 29.675781 21.332031 C 29.800781 21.148438 29.992188 21 30.257812 20.890625 C 30.523438 20.785156 30.878906 20.792969 31.332031 20.914062 C 31.71875 21.007812 31.996094 21.164062 32.171875 21.378906 C 32.359375 21.582031 32.476562 21.796875 32.523438 22.027344 C 32.582031 22.25 32.617188 22.441406 32.617188 22.609375 C 32.617188 22.765625 32.617188 22.839844 32.617188 22.839844 C 32.476562 23.722656 32.429688 24.582031 32.476562 25.417969 C 32.523438 26.242188 32.671875 26.890625 32.941406 27.367188 C 33.109375 27.648438 33.316406 27.867188 33.546875 28.019531 C 33.78125 28.15625 34.027344 28.246094 34.292969 28.273438 C 34.558594 28.292969 34.808594 28.269531 35.042969 28.203125 C 35.285156 28.128906 35.496094 28.03125 35.671875 27.902344 C 35.886719 27.714844 36.050781 27.425781 36.160156 27.019531 C 36.265625 26.601562 36.328125 26.160156 36.347656 25.695312 C 36.375 25.234375 36.351562 24.816406 36.277344 24.441406 C 36.195312 24.070312 36.121094 23.734375 36.042969 23.421875 C 35.980469 23.113281 35.925781 22.835938 35.882812 22.585938 C 35.847656 22.324219 35.816406 22.09375 35.789062 21.890625 C 35.789062 21.890625 35.789062 21.835938 35.789062 21.726562 C 35.800781 21.621094 35.847656 21.496094 35.925781 21.355469 C 36.003906 21.203125 36.136719 21.066406 36.324219 20.9375 C 36.511719 20.796875 36.773438 20.730469 37.117188 20.730469 C 37.445312 20.683594 37.734375 20.742188 38.003906 20.890625 C 38.285156 21.03125 38.492188 21.179688 38.632812 21.332031 C 38.785156 21.472656 38.867188 21.542969 38.867188 21.542969 C 39.082031 21.855469 39.308594 22.273438 39.542969 22.796875 C 39.777344 23.304688 39.945312 23.875 40.054688 24.488281 C 40.160156 25.25 40.195312 25.917969 40.148438 26.484375 C 40.113281 27.042969 40.007812 27.546875 39.824219 27.996094 C 39.648438 28.429688 39.410156 28.878906 39.101562 29.339844 C 38.785156 29.714844 38.40625 30.039062 37.957031 30.316406 C 37.503906 30.59375 37.007812 30.804688 36.464844 30.945312 C 35.933594 31.082031 35.378906 31.152344 34.808594 31.152344 C 34.25 31.164062 33.699219 31.089844 33.175781 30.921875 Z M 33.175781 30.921875 " fill-opacity="1" fill-rule="nonzero"/><path fill="#ffffff" d="M 46.085938 31.316406 C 45.15625 31.128906 44.390625 30.851562 43.800781 30.480469 C 43.226562 30.109375 42.78125 29.679688 42.472656 29.179688 C 42.175781 28.6875 41.964844 28.15625 41.84375 27.601562 C 41.730469 27.03125 41.667969 26.464844 41.65625 25.90625 C 41.65625 25.226562 41.777344 24.558594 42.03125 23.910156 C 42.292969 23.246094 42.660156 22.65625 43.125 22.144531 C 43.605469 21.632812 44.179688 21.238281 44.851562 20.960938 C 45.535156 20.671875 46.28125 20.554688 47.089844 20.613281 C 47.914062 20.675781 48.59375 20.839844 49.144531 21.101562 C 49.703125 21.367188 50.132812 21.691406 50.449219 22.074219 C 50.757812 22.445312 50.984375 22.859375 51.125 23.304688 C 51.265625 23.742188 51.335938 24.160156 51.335938 24.558594 C 51.347656 25.246094 51.179688 25.847656 50.824219 26.371094 C 50.460938 26.898438 49.867188 27.265625 49.027344 27.460938 C 48.804688 27.523438 48.542969 27.566406 48.234375 27.578125 C 47.9375 27.578125 47.628906 27.578125 47.300781 27.578125 C 46.972656 27.578125 46.648438 27.578125 46.320312 27.578125 C 45.996094 27.566406 45.703125 27.546875 45.457031 27.53125 C 45.207031 27.5 45.003906 27.480469 44.851562 27.460938 C 44.695312 27.449219 44.617188 27.4375 44.617188 27.4375 C 44.648438 27.640625 44.742188 27.855469 44.898438 28.089844 C 45.050781 28.320312 45.277344 28.523438 45.574219 28.691406 C 45.882812 28.867188 46.285156 28.945312 46.789062 28.945312 C 47.3125 28.933594 47.773438 28.914062 48.164062 28.878906 C 48.546875 28.847656 48.863281 28.820312 49.097656 28.785156 C 49.339844 28.753906 49.523438 28.730469 49.632812 28.714844 C 49.753906 28.6875 49.820312 28.667969 49.820312 28.667969 C 49.820312 28.667969 49.867188 28.667969 49.960938 28.667969 C 50.054688 28.65625 50.175781 28.664062 50.332031 28.691406 C 50.503906 28.710938 50.664062 28.761719 50.824219 28.855469 C 50.992188 28.945312 51.132812 29.085938 51.242188 29.273438 C 51.363281 29.476562 51.417969 29.65625 51.40625 29.804688 C 51.386719 29.960938 51.339844 30.097656 51.265625 30.199219 C 51.203125 30.3125 51.132812 30.398438 51.054688 30.457031 C 50.972656 30.519531 50.9375 30.550781 50.9375 30.550781 C 50.9375 30.550781 50.789062 30.613281 50.496094 30.734375 C 50.199219 30.84375 49.820312 30.960938 49.351562 31.082031 C 48.886719 31.222656 48.363281 31.316406 47.789062 31.363281 C 47.214844 31.417969 46.648438 31.40625 46.085938 31.316406 Z M 44.664062 25.464844 L 47.628906 25.417969 C 47.628906 25.417969 47.65625 25.417969 47.71875 25.417969 C 47.796875 25.417969 47.890625 25.40625 48 25.371094 C 48.105469 25.324219 48.214844 25.273438 48.328125 25.210938 C 48.433594 25.132812 48.519531 25.035156 48.582031 24.90625 C 48.660156 24.769531 48.699219 24.601562 48.699219 24.398438 C 48.699219 24.070312 48.636719 23.804688 48.511719 23.585938 C 48.386719 23.371094 48.175781 23.207031 47.882812 23.097656 C 47.605469 22.992188 47.21875 22.957031 46.742188 23.003906 C 46.414062 23.019531 46.117188 23.121094 45.855469 23.304688 C 45.585938 23.480469 45.363281 23.695312 45.179688 23.957031 C 44.992188 24.222656 44.851562 24.488281 44.757812 24.769531 C 44.675781 25.046875 44.648438 25.277344 44.664062 25.464844 Z M 44.664062 25.464844 " fill-opacity="1" fill-rule="nonzero"/><path fill="#ffffff" d="M 54.945312 31.035156 C 54.644531 31.054688 54.394531 31.03125 54.199219 30.964844 C 53.992188 30.910156 53.832031 30.820312 53.707031 30.710938 C 53.578125 30.589844 53.484375 30.457031 53.429688 30.316406 C 53.363281 30.175781 53.324219 30.039062 53.3125 29.898438 C 53.265625 29.097656 53.222656 28.320312 53.195312 27.578125 C 53.160156 26.824219 53.136719 26.078125 53.125 25.347656 C 53.105469 24.605469 53.101562 23.863281 53.101562 23.121094 C 53.113281 22.378906 53.136719 21.609375 53.171875 20.820312 C 53.199219 20.019531 53.265625 19.167969 53.359375 18.269531 C 53.359375 18.269531 53.359375 18.222656 53.359375 18.128906 C 53.371094 18.035156 53.410156 17.9375 53.472656 17.828125 C 53.53125 17.707031 53.636719 17.605469 53.777344 17.523438 C 53.929688 17.449219 54.132812 17.421875 54.382812 17.433594 C 54.628906 17.46875 54.828125 17.535156 54.96875 17.640625 C 55.105469 17.75 55.199219 17.867188 55.246094 17.988281 C 55.304688 18.117188 55.347656 18.234375 55.363281 18.335938 C 55.375 18.449219 55.386719 18.5 55.386719 18.5 C 55.277344 20.300781 55.210938 22.09375 55.199219 23.886719 C 55.199219 25.683594 55.246094 27.472656 55.339844 29.25 C 56.164062 29.15625 56.933594 29.0625 57.648438 28.96875 C 58.378906 28.878906 59.074219 28.777344 59.726562 28.667969 C 60.378906 28.5625 61.015625 28.453125 61.636719 28.34375 C 61.636719 28.34375 61.671875 28.34375 61.753906 28.34375 C 61.832031 28.332031 61.921875 28.332031 62.035156 28.34375 C 62.140625 28.34375 62.257812 28.367188 62.382812 28.414062 C 62.523438 28.449219 62.640625 28.507812 62.734375 28.597656 C 62.828125 28.679688 62.898438 28.796875 62.945312 28.945312 C 63.003906 29.167969 63.015625 29.351562 62.96875 29.503906 C 62.933594 29.644531 62.878906 29.757812 62.804688 29.851562 C 62.722656 29.933594 62.652344 29.992188 62.59375 30.039062 C 62.53125 30.074219 62.5 30.085938 62.5 30.085938 C 61.832031 30.222656 61.175781 30.351562 60.542969 30.457031 C 59.917969 30.566406 59.292969 30.660156 58.675781 30.734375 C 58.050781 30.816406 57.441406 30.886719 56.832031 30.945312 C 56.226562 30.988281 55.597656 31.023438 54.945312 31.035156 Z M 54.945312 31.035156 " fill-opacity="1" fill-rule="nonzero"/><path fill="#ffffff" d="M 69.738281 31.035156 C 69.003906 31.035156 68.328125 30.910156 67.707031 30.640625 C 67.101562 30.378906 66.578125 30.027344 66.144531 29.574219 C 65.707031 29.109375 65.375 28.574219 65.140625 27.972656 C 64.910156 27.355469 64.792969 26.695312 64.792969 26 C 64.792969 25.300781 64.914062 24.628906 65.164062 23.980469 C 65.429688 23.328125 65.796875 22.761719 66.261719 22.261719 C 66.738281 21.75 67.300781 21.351562 67.941406 21.054688 C 68.578125 20.765625 69.257812 20.613281 69.992188 20.613281 C 70.707031 20.613281 71.382812 20.722656 72.023438 20.9375 C 72.660156 21.140625 73.210938 21.460938 73.679688 21.890625 C 74.144531 22.308594 74.5 22.851562 74.753906 23.515625 C 75.015625 24.183594 75.148438 24.964844 75.148438 25.859375 C 75.148438 26.554688 75.007812 27.222656 74.730469 27.855469 C 74.449219 28.476562 74.050781 29.027344 73.539062 29.503906 C 73.039062 29.96875 72.464844 30.339844 71.8125 30.617188 C 71.160156 30.898438 70.464844 31.035156 69.738281 31.035156 Z M 69.714844 29.179688 C 70.164062 29.179688 70.582031 29.085938 70.972656 28.902344 C 71.375 28.714844 71.730469 28.460938 72.046875 28.132812 C 72.355469 27.808594 72.59375 27.449219 72.769531 27.042969 C 72.957031 26.625 73.050781 26.183594 73.050781 25.71875 C 73.050781 24.949219 72.914062 24.316406 72.652344 23.816406 C 72.402344 23.304688 72.050781 22.929688 71.601562 22.679688 C 71.148438 22.433594 70.628906 22.308594 70.039062 22.308594 C 69.601562 22.308594 69.199219 22.417969 68.828125 22.632812 C 68.453125 22.851562 68.117188 23.136719 67.824219 23.492188 C 67.546875 23.851562 67.316406 24.25 67.148438 24.699219 C 66.972656 25.152344 66.890625 25.605469 66.890625 26.070312 C 66.890625 26.660156 67.007812 27.195312 67.242188 27.671875 C 67.476562 28.152344 67.800781 28.523438 68.222656 28.785156 C 68.652344 29.050781 69.15625 29.179688 69.714844 29.179688 Z M 69.714844 29.179688 " fill-opacity="1" fill-rule="nonzero"/><path fill="#ffffff" d="M 81.167969 31.058594 C 80.980469 31.046875 80.777344 31.007812 80.558594 30.945312 C 80.339844 30.867188 80.121094 30.753906 79.90625 30.59375 C 79.703125 30.425781 79.511719 30.21875 79.324219 29.96875 C 79.136719 29.726562 78.980469 29.421875 78.855469 29.0625 L 76.992188 22.074219 C 76.992188 22.074219 76.980469 22.027344 76.96875 21.9375 C 76.96875 21.84375 76.972656 21.738281 76.992188 21.609375 C 77.019531 21.488281 77.089844 21.378906 77.199219 21.285156 C 77.304688 21.179688 77.46875 21.113281 77.691406 21.078125 C 77.925781 21.03125 78.117188 21.042969 78.273438 21.101562 C 78.441406 21.164062 78.578125 21.25 78.671875 21.355469 C 78.773438 21.449219 78.855469 21.535156 78.902344 21.609375 C 78.960938 21.691406 78.996094 21.726562 78.996094 21.726562 L 80.117188 25.882812 C 80.316406 26.660156 80.496094 27.296875 80.652344 27.808594 C 80.820312 28.320312 80.980469 28.65625 81.121094 28.808594 C 81.269531 28.796875 81.480469 28.574219 81.75 28.15625 C 82.027344 27.726562 82.332031 27.089844 82.660156 26.253906 C 82.875 25.667969 83.054688 25.109375 83.195312 24.582031 C 83.347656 24.058594 83.464844 23.574219 83.546875 23.121094 C 83.636719 22.65625 83.707031 22.214844 83.753906 21.796875 C 83.753906 21.796875 83.761719 21.75 83.777344 21.65625 C 83.808594 21.566406 83.855469 21.464844 83.917969 21.355469 C 83.996094 21.234375 84.105469 21.136719 84.246094 21.054688 C 84.398438 20.976562 84.605469 20.957031 84.875 20.984375 C 85.136719 21.019531 85.328125 21.09375 85.457031 21.214844 C 85.597656 21.328125 85.691406 21.449219 85.738281 21.585938 C 85.796875 21.726562 85.832031 21.855469 85.832031 21.960938 C 85.832031 22.070312 85.832031 22.121094 85.832031 22.121094 C 85.832031 22.558594 85.789062 23 85.714844 23.445312 C 85.632812 23.898438 85.535156 24.339844 85.410156 24.769531 C 85.300781 25.203125 85.183594 25.621094 85.0625 26.023438 C 84.933594 26.410156 84.804688 26.777344 84.664062 27.113281 C 84.292969 28.089844 83.902344 28.871094 83.5 29.457031 C 83.109375 30.050781 82.710938 30.472656 82.308594 30.734375 C 81.917969 31 81.539062 31.105469 81.167969 31.058594 Z M 81.167969 31.058594 " fill-opacity="1" fill-rule="nonzero"/><path fill="#ffffff" d="M 91.988281 31.292969 C 91.054688 31.136719 90.296875 30.875 89.726562 30.503906 C 89.164062 30.132812 88.726562 29.703125 88.417969 29.203125 C 88.121094 28.710938 87.917969 28.175781 87.8125 27.601562 C 87.71875 27.03125 87.671875 26.464844 87.671875 25.90625 C 87.65625 25.289062 87.765625 24.664062 88 24.027344 C 88.246094 23.394531 88.605469 22.8125 89.074219 22.285156 C 89.550781 21.746094 90.121094 21.328125 90.773438 21.03125 C 91.441406 20.742188 92.1875 20.625 93.015625 20.683594 C 93.835938 20.730469 94.507812 20.886719 95.019531 21.148438 C 95.546875 21.414062 95.953125 21.726562 96.234375 22.097656 C 96.523438 22.46875 96.722656 22.875 96.816406 23.304688 C 96.921875 23.722656 96.984375 24.117188 97.003906 24.488281 C 96.984375 25.1875 96.800781 25.765625 96.441406 26.230469 C 96.082031 26.695312 95.535156 27.015625 94.789062 27.183594 C 94.554688 27.230469 94.261719 27.269531 93.925781 27.296875 C 93.578125 27.316406 93.210938 27.320312 92.828125 27.320312 C 92.4375 27.320312 92.058594 27.316406 91.683594 27.296875 C 91.324219 27.289062 90.984375 27.269531 90.660156 27.253906 C 90.34375 27.242188 90.097656 27.230469 89.914062 27.230469 C 89.726562 27.21875 89.632812 27.207031 89.632812 27.207031 C 89.660156 27.59375 89.777344 27.972656 89.980469 28.34375 C 90.199219 28.714844 90.507812 29.027344 90.914062 29.273438 C 91.316406 29.503906 91.824219 29.644531 92.429688 29.691406 C 92.945312 29.691406 93.421875 29.683594 93.878906 29.667969 C 94.328125 29.636719 94.722656 29.597656 95.066406 29.550781 C 95.40625 29.492188 95.660156 29.433594 95.835938 29.386719 C 96.023438 29.339844 96.117188 29.320312 96.117188 29.320312 C 96.117188 29.320312 96.152344 29.320312 96.234375 29.320312 C 96.308594 29.308594 96.402344 29.308594 96.511719 29.320312 C 96.617188 29.335938 96.730469 29.375 96.839844 29.433594 C 96.945312 29.5 97.039062 29.609375 97.121094 29.757812 C 97.195312 29.898438 97.21875 30.027344 97.191406 30.132812 C 97.171875 30.242188 97.132812 30.335938 97.074219 30.410156 C 97.027344 30.492188 96.980469 30.542969 96.933594 30.570312 C 96.886719 30.605469 96.863281 30.617188 96.863281 30.617188 C 96.863281 30.617188 96.710938 30.675781 96.417969 30.78125 C 96.121094 30.875 95.730469 30.976562 95.253906 31.082031 C 94.769531 31.203125 94.238281 31.292969 93.667969 31.339844 C 93.089844 31.394531 92.53125 31.382812 91.988281 31.292969 Z M 89.632812 25.90625 L 93.738281 25.859375 C 93.738281 25.859375 93.785156 25.855469 93.878906 25.835938 C 93.980469 25.824219 94.109375 25.789062 94.25 25.742188 C 94.402344 25.695312 94.554688 25.621094 94.695312 25.511719 C 94.84375 25.40625 94.972656 25.253906 95.066406 25.070312 C 95.171875 24.882812 95.230469 24.644531 95.230469 24.351562 C 95.230469 23.855469 95.144531 23.445312 94.972656 23.121094 C 94.796875 22.796875 94.511719 22.5625 94.109375 22.421875 C 93.71875 22.285156 93.175781 22.230469 92.476562 22.261719 C 91.992188 22.296875 91.566406 22.445312 91.195312 22.726562 C 90.820312 22.992188 90.507812 23.324219 90.261719 23.722656 C 90.011719 24.113281 89.832031 24.507812 89.726562 24.90625 C 89.613281 25.296875 89.585938 25.628906 89.632812 25.90625 Z M 89.632812 25.90625 " fill-opacity="1" fill-rule="nonzero"/><g clip-path="url(#d9f225efe8)"><g clip-path="url(#e22954a75d)"><path fill="#ffffff" d="M 5.1875 35.671875 L 98.695312 35.671875 L 98.695312 50.976562 L 5.1875 50.976562 Z M 5.1875 35.671875 " fill-opacity="1" fill-rule="nonzero"/></g></g><path fill="#ab1010" d="M 25.160156 46.910156 C 24.648438 46.816406 24.203125 46.65625 23.832031 46.421875 C 23.457031 46.179688 23.144531 45.890625 22.898438 45.5625 C 22.664062 45.238281 22.484375 44.890625 22.359375 44.519531 C 22.234375 44.148438 22.15625 43.789062 22.128906 43.429688 C 22.109375 43.058594 22.132812 42.71875 22.199219 42.40625 C 22.273438 42.035156 22.40625 41.652344 22.59375 41.246094 C 22.78125 40.828125 23.027344 40.433594 23.339844 40.0625 C 23.667969 39.691406 24.046875 39.398438 24.484375 39.179688 C 24.933594 38.949219 25.445312 38.832031 26.023438 38.832031 C 26.566406 38.832031 27.050781 38.9375 27.46875 39.132812 C 27.890625 39.335938 28.214844 39.597656 28.449219 39.921875 C 28.695312 40.234375 28.855469 40.574219 28.9375 40.945312 C 29.015625 41.304688 28.996094 41.640625 28.890625 41.964844 C 28.890625 41.964844 28.875 41.988281 28.84375 42.035156 C 28.828125 42.070312 28.78125 42.097656 28.707031 42.128906 C 28.640625 42.164062 28.554688 42.175781 28.449219 42.175781 C 28.339844 42.144531 28.25 42.105469 28.191406 42.058594 C 28.144531 42 28.109375 41.941406 28.097656 41.894531 C 28.082031 41.847656 28.074219 41.828125 28.074219 41.828125 C 28.074219 41.828125 28.0625 41.773438 28.050781 41.664062 C 28.050781 41.542969 28.027344 41.398438 27.984375 41.222656 C 27.949219 41.035156 27.878906 40.851562 27.773438 40.664062 C 27.679688 40.46875 27.527344 40.289062 27.328125 40.132812 C 27.144531 39.980469 26.875 39.863281 26.535156 39.785156 C 26.191406 39.707031 25.847656 39.738281 25.511719 39.875 C 25.183594 40.003906 24.867188 40.195312 24.578125 40.457031 C 24.28125 40.722656 24.023438 41.03125 23.808594 41.386719 C 23.601562 41.726562 23.441406 42.082031 23.316406 42.453125 C 23.207031 42.824219 23.175781 43.171875 23.222656 43.496094 C 23.253906 43.859375 23.328125 44.171875 23.457031 44.449219 C 23.597656 44.726562 23.75 44.972656 23.925781 45.167969 C 24.109375 45.371094 24.304688 45.539062 24.507812 45.679688 C 24.722656 45.808594 24.9375 45.902344 25.160156 45.957031 C 25.375 46.023438 25.578125 46.050781 25.765625 46.050781 C 26.046875 46.050781 26.316406 46 26.582031 45.890625 C 26.84375 45.765625 27.078125 45.621094 27.28125 45.449219 C 27.480469 45.261719 27.632812 45.078125 27.726562 44.890625 C 27.726562 44.890625 27.738281 44.878906 27.773438 44.84375 C 27.800781 44.796875 27.84375 44.761719 27.890625 44.726562 C 27.949219 44.683594 28.015625 44.660156 28.097656 44.660156 C 28.191406 44.660156 28.296875 44.683594 28.425781 44.726562 C 28.519531 44.773438 28.589844 44.832031 28.636719 44.890625 C 28.683594 44.9375 28.710938 44.996094 28.730469 45.054688 C 28.742188 45.101562 28.742188 45.144531 28.730469 45.191406 C 28.730469 45.238281 28.71875 45.28125 28.707031 45.308594 C 28.707031 45.324219 28.707031 45.332031 28.707031 45.332031 C 28.707031 45.332031 28.664062 45.402344 28.589844 45.539062 C 28.507812 45.679688 28.386719 45.84375 28.214844 46.027344 C 28.039062 46.214844 27.820312 46.394531 27.539062 46.5625 C 27.269531 46.738281 26.9375 46.859375 26.535156 46.933594 C 26.144531 47.015625 25.683594 47.003906 25.160156 46.910156 Z M 25.160156 46.910156 " fill-opacity="1" fill-rule="nonzero"/><path fill="#ab1010" d="M 33.019531 46.980469 C 32.582031 46.980469 32.183594 46.90625 31.828125 46.746094 C 31.484375 46.597656 31.183594 46.386719 30.921875 46.121094 C 30.667969 45.84375 30.476562 45.515625 30.335938 45.144531 C 30.195312 44.773438 30.128906 44.378906 30.128906 43.960938 C 30.140625 43.53125 30.226562 43.121094 30.382812 42.730469 C 30.550781 42.332031 30.769531 41.984375 31.035156 41.6875 C 31.316406 41.398438 31.644531 41.164062 32.015625 40.992188 C 32.390625 40.824219 32.792969 40.734375 33.230469 40.734375 C 33.816406 40.734375 34.332031 40.84375 34.769531 41.058594 C 35.21875 41.28125 35.5625 41.628906 35.796875 42.105469 C 36.039062 42.570312 36.167969 43.160156 36.167969 43.871094 C 36.167969 44.289062 36.085938 44.695312 35.933594 45.078125 C 35.777344 45.449219 35.550781 45.785156 35.257812 46.074219 C 34.980469 46.351562 34.640625 46.578125 34.253906 46.746094 C 33.882812 46.90625 33.46875 46.980469 33.019531 46.980469 Z M 33.042969 46.050781 C 33.324219 46.050781 33.589844 45.992188 33.859375 45.867188 C 34.121094 45.742188 34.355469 45.582031 34.558594 45.378906 C 34.757812 45.164062 34.921875 44.914062 35.046875 44.636719 C 35.171875 44.355469 35.234375 44.074219 35.234375 43.777344 C 35.234375 43.253906 35.140625 42.824219 34.957031 42.5 C 34.78125 42.164062 34.546875 41.914062 34.253906 41.757812 C 33.976562 41.605469 33.648438 41.523438 33.277344 41.523438 C 32.996094 41.523438 32.722656 41.59375 32.460938 41.734375 C 32.207031 41.871094 31.992188 42.070312 31.804688 42.3125 C 31.621094 42.546875 31.46875 42.8125 31.363281 43.101562 C 31.253906 43.398438 31.199219 43.699219 31.199219 44.007812 C 31.199219 44.398438 31.277344 44.746094 31.433594 45.054688 C 31.585938 45.367188 31.792969 45.609375 32.0625 45.796875 C 32.34375 45.96875 32.667969 46.050781 33.042969 46.050781 Z M 36.261719 47.003906 C 36.132812 47.003906 36.035156 46.980469 35.957031 46.933594 C 35.875 46.886719 35.824219 46.851562 35.796875 46.816406 C 35.761719 46.769531 35.75 46.746094 35.75 46.746094 C 35.683594 46.132812 35.636719 45.515625 35.609375 44.914062 C 35.574219 44.296875 35.566406 43.660156 35.585938 43.011719 C 35.613281 42.359375 35.660156 41.699219 35.726562 41.015625 C 35.726562 41.015625 35.730469 40.992188 35.75 40.945312 C 35.777344 40.898438 35.824219 40.851562 35.886719 40.804688 C 35.964844 40.757812 36.074219 40.746094 36.214844 40.757812 C 36.335938 40.757812 36.429688 40.792969 36.496094 40.851562 C 36.554688 40.898438 36.601562 40.960938 36.632812 41.035156 C 36.664062 41.101562 36.679688 41.164062 36.679688 41.222656 C 36.691406 41.269531 36.703125 41.292969 36.703125 41.292969 C 36.667969 41.726562 36.640625 42.152344 36.613281 42.570312 C 36.59375 42.976562 36.589844 43.394531 36.589844 43.824219 C 36.589844 44.257812 36.59375 44.703125 36.613281 45.167969 C 36.640625 45.621094 36.664062 46.097656 36.679688 46.609375 C 36.679688 46.609375 36.667969 46.632812 36.65625 46.679688 C 36.65625 46.726562 36.640625 46.769531 36.613281 46.816406 C 36.59375 46.863281 36.554688 46.910156 36.496094 46.957031 C 36.429688 46.992188 36.355469 47.003906 36.261719 47.003906 Z M 36.261719 47.003906 " fill-opacity="1" fill-rule="nonzero"/><path fill="#ab1010" d="M 38.535156 47.003906 C 38.421875 47.003906 38.332031 46.992188 38.253906 46.957031 C 38.191406 46.910156 38.136719 46.863281 38.089844 46.816406 C 38.054688 46.757812 38.027344 46.714844 37.996094 46.679688 C 37.980469 46.632812 37.972656 46.609375 37.972656 46.609375 C 37.941406 46.238281 37.910156 45.8125 37.882812 45.332031 C 37.863281 44.855469 37.847656 44.34375 37.835938 43.800781 C 37.835938 43.261719 37.839844 42.71875 37.859375 42.175781 C 37.871094 41.617188 37.886719 41.082031 37.90625 40.574219 C 37.933594 40.0625 37.960938 39.609375 37.996094 39.203125 C 37.996094 39.203125 38.003906 39.191406 38.019531 39.15625 C 38.03125 39.109375 38.050781 39.0625 38.066406 39.015625 C 38.097656 38.960938 38.148438 38.914062 38.230469 38.878906 C 38.308594 38.847656 38.398438 38.84375 38.511719 38.855469 C 38.617188 38.855469 38.703125 38.878906 38.765625 38.925781 C 38.84375 38.972656 38.894531 39.035156 38.929688 39.109375 C 38.960938 39.175781 38.976562 39.226562 38.976562 39.273438 C 38.988281 39.320312 39 39.34375 39 39.34375 C 38.984375 39.667969 38.964844 40.074219 38.953125 40.550781 C 38.9375 41.015625 38.917969 41.511719 38.90625 42.035156 C 38.90625 42.5625 38.90625 43.101562 38.90625 43.660156 C 38.90625 44.207031 38.914062 44.726562 38.929688 45.238281 C 38.941406 45.75 38.960938 46.214844 38.976562 46.632812 C 38.976562 46.632812 38.964844 46.65625 38.953125 46.703125 C 38.953125 46.738281 38.9375 46.78125 38.90625 46.839844 C 38.890625 46.886719 38.847656 46.929688 38.789062 46.957031 C 38.726562 46.992188 38.640625 47.003906 38.535156 47.003906 Z M 38.535156 47.003906 " fill-opacity="1" fill-rule="nonzero"/><path fill="#ab1010" d="M 43.152344 47.144531 C 42.449219 47.097656 41.890625 46.949219 41.472656 46.703125 C 41.050781 46.441406 40.738281 46.09375 40.539062 45.65625 C 40.335938 45.226562 40.210938 44.738281 40.164062 44.195312 C 40.128906 43.765625 40.175781 43.347656 40.304688 42.941406 C 40.445312 42.523438 40.644531 42.152344 40.910156 41.828125 C 41.191406 41.5 41.523438 41.246094 41.914062 41.058594 C 42.316406 40.875 42.777344 40.78125 43.289062 40.78125 C 43.710938 40.78125 44.058594 40.839844 44.339844 40.945312 C 44.632812 41.054688 44.875 41.1875 45.0625 41.339844 C 45.25 41.476562 45.394531 41.628906 45.507812 41.78125 C 45.613281 41.9375 45.679688 42.070312 45.714844 42.175781 C 45.761719 42.265625 45.785156 42.3125 45.785156 42.3125 C 45.785156 42.3125 45.785156 42.335938 45.785156 42.382812 C 45.796875 42.417969 45.792969 42.464844 45.761719 42.523438 C 45.726562 42.585938 45.675781 42.640625 45.601562 42.683594 C 45.507812 42.730469 45.402344 42.753906 45.296875 42.753906 C 45.203125 42.753906 45.117188 42.75 45.039062 42.730469 C 44.976562 42.703125 44.929688 42.679688 44.898438 42.660156 C 44.898438 42.660156 44.875 42.628906 44.828125 42.546875 C 44.785156 42.453125 44.703125 42.355469 44.597656 42.246094 C 44.503906 42.140625 44.363281 42.046875 44.175781 41.964844 C 43.992188 41.890625 43.761719 41.84375 43.5 41.828125 C 43.203125 41.828125 42.921875 41.871094 42.660156 41.964844 C 42.390625 42.046875 42.152344 42.167969 41.9375 42.335938 C 41.714844 42.511719 41.546875 42.742188 41.425781 43.035156 C 41.3125 43.3125 41.265625 43.660156 41.285156 44.078125 C 41.3125 44.558594 41.40625 44.9375 41.566406 45.214844 C 41.734375 45.496094 41.949219 45.703125 42.21875 45.84375 C 42.496094 45.96875 42.824219 46.046875 43.199219 46.074219 C 43.476562 46.109375 43.738281 46.09375 43.992188 46.027344 C 44.234375 45.96875 44.445312 45.890625 44.621094 45.796875 C 44.808594 45.703125 44.953125 45.628906 45.0625 45.5625 C 45.167969 45.488281 45.226562 45.449219 45.226562 45.449219 C 45.300781 45.417969 45.378906 45.402344 45.460938 45.402344 C 45.535156 45.402344 45.613281 45.417969 45.691406 45.449219 C 45.769531 45.484375 45.839844 45.539062 45.902344 45.632812 C 45.960938 45.714844 45.996094 45.785156 45.996094 45.84375 C 46.007812 45.90625 46.007812 45.957031 45.996094 46.003906 C 45.980469 46.050781 45.972656 46.074219 45.972656 46.074219 C 45.972656 46.074219 45.914062 46.136719 45.808594 46.261719 C 45.714844 46.371094 45.554688 46.503906 45.320312 46.65625 C 45.097656 46.792969 44.8125 46.921875 44.457031 47.027344 C 44.09375 47.132812 43.664062 47.171875 43.152344 47.144531 Z M 43.152344 47.144531 " fill-opacity="1" fill-rule="nonzero"/><path fill="#ab1010" d="M 49.089844 46.886719 C 48.867188 46.792969 48.65625 46.671875 48.457031 46.515625 C 48.273438 46.363281 48.097656 46.183594 47.945312 45.980469 C 47.789062 45.765625 47.652344 45.527344 47.546875 45.261719 C 47.4375 45 47.34375 44.699219 47.269531 44.355469 C 47.1875 43.910156 47.15625 43.445312 47.175781 42.964844 C 47.1875 42.46875 47.234375 41.953125 47.316406 41.410156 C 47.316406 41.410156 47.320312 41.386719 47.339844 41.339844 C 47.351562 41.292969 47.375 41.246094 47.410156 41.199219 C 47.4375 41.140625 47.488281 41.09375 47.570312 41.058594 C 47.664062 41.015625 47.769531 41.015625 47.898438 41.058594 C 48.019531 41.078125 48.113281 41.117188 48.179688 41.175781 C 48.238281 41.238281 48.277344 41.308594 48.292969 41.386719 C 48.324219 41.449219 48.339844 41.5 48.339844 41.546875 C 48.339844 41.59375 48.339844 41.617188 48.339844 41.617188 C 48.261719 42.394531 48.230469 43.089844 48.25 43.707031 C 48.277344 44.308594 48.386719 44.792969 48.574219 45.144531 C 48.714844 45.394531 48.859375 45.597656 49.019531 45.75 C 49.1875 45.90625 49.355469 46.015625 49.53125 46.074219 C 49.71875 46.136719 49.894531 46.160156 50.066406 46.144531 C 50.253906 46.117188 50.441406 46.050781 50.628906 45.957031 C 50.90625 45.789062 51.121094 45.574219 51.28125 45.308594 C 51.449219 45.046875 51.566406 44.761719 51.628906 44.449219 C 51.707031 44.140625 51.730469 43.824219 51.699219 43.496094 C 51.683594 43.207031 51.640625 42.90625 51.582031 42.59375 C 51.519531 42.285156 51.457031 42.007812 51.398438 41.757812 C 51.351562 41.496094 51.308594 41.304688 51.28125 41.175781 C 51.28125 41.175781 51.28125 41.164062 51.28125 41.128906 C 51.28125 41.101562 51.285156 41.070312 51.304688 41.035156 C 51.332031 40.992188 51.375 40.945312 51.421875 40.898438 C 51.46875 40.851562 51.535156 40.828125 51.628906 40.828125 C 51.734375 40.816406 51.828125 40.828125 51.910156 40.875 C 51.984375 40.910156 52.039062 40.945312 52.074219 40.992188 C 52.121094 41.035156 52.144531 41.058594 52.144531 41.058594 C 52.296875 41.308594 52.429688 41.59375 52.539062 41.917969 C 52.644531 42.246094 52.738281 42.59375 52.820312 42.964844 C 52.878906 43.417969 52.894531 43.824219 52.867188 44.195312 C 52.847656 44.566406 52.785156 44.902344 52.679688 45.191406 C 52.570312 45.488281 52.421875 45.765625 52.238281 46.027344 C 52.0625 46.230469 51.863281 46.417969 51.628906 46.585938 C 51.398438 46.742188 51.140625 46.859375 50.859375 46.933594 C 50.59375 47.015625 50.308594 47.050781 49.996094 47.050781 C 49.699219 47.050781 49.398438 46.996094 49.089844 46.886719 Z M 49.089844 46.886719 " fill-opacity="1" fill-rule="nonzero"/><path fill="#ab1010" d="M 54.722656 47.003906 C 54.613281 47.003906 54.519531 46.992188 54.441406 46.957031 C 54.378906 46.910156 54.324219 46.863281 54.28125 46.816406 C 54.246094 46.757812 54.214844 46.714844 54.1875 46.679688 C 54.167969 46.632812 54.164062 46.609375 54.164062 46.609375 C 54.128906 46.238281 54.097656 45.8125 54.070312 45.332031 C 54.050781 44.855469 54.035156 44.34375 54.023438 43.800781 C 54.023438 43.261719 54.027344 42.71875 54.046875 42.175781 C 54.058594 41.617188 54.074219 41.082031 54.09375 40.574219 C 54.121094 40.0625 54.152344 39.609375 54.1875 39.203125 C 54.1875 39.203125 54.191406 39.191406 54.210938 39.15625 C 54.222656 39.109375 54.238281 39.0625 54.257812 39.015625 C 54.285156 38.960938 54.335938 38.914062 54.417969 38.878906 C 54.496094 38.847656 54.589844 38.84375 54.699219 38.855469 C 54.804688 38.855469 54.890625 38.878906 54.957031 38.925781 C 55.03125 38.972656 55.085938 39.035156 55.117188 39.109375 C 55.148438 39.175781 55.164062 39.226562 55.164062 39.273438 C 55.175781 39.320312 55.1875 39.34375 55.1875 39.34375 C 55.171875 39.667969 55.152344 40.074219 55.140625 40.550781 C 55.125 41.015625 55.105469 41.511719 55.097656 42.035156 C 55.097656 42.5625 55.097656 43.101562 55.097656 43.660156 C 55.097656 44.207031 55.101562 44.726562 55.117188 45.238281 C 55.128906 45.75 55.148438 46.214844 55.164062 46.632812 C 55.164062 46.632812 55.152344 46.65625 55.140625 46.703125 C 55.140625 46.738281 55.125 46.78125 55.097656 46.839844 C 55.078125 46.886719 55.039062 46.929688 54.980469 46.957031 C 54.914062 46.992188 54.828125 47.003906 54.722656 47.003906 Z M 54.722656 47.003906 " fill-opacity="1" fill-rule="nonzero"/><path fill="#ab1010" d="M 59.222656 46.980469 C 58.785156 46.980469 58.386719 46.90625 58.03125 46.746094 C 57.6875 46.597656 57.386719 46.386719 57.121094 46.121094 C 56.871094 45.84375 56.679688 45.515625 56.539062 45.144531 C 56.398438 44.773438 56.328125 44.378906 56.328125 43.960938 C 56.339844 43.53125 56.429688 43.121094 56.585938 42.730469 C 56.753906 42.332031 56.972656 41.984375 57.238281 41.6875 C 57.519531 41.398438 57.847656 41.164062 58.21875 40.992188 C 58.59375 40.824219 58.996094 40.734375 59.433594 40.734375 C 60.019531 40.734375 60.535156 40.84375 60.972656 41.058594 C 61.421875 41.28125 61.765625 41.628906 61.996094 42.105469 C 62.242188 42.570312 62.371094 43.160156 62.371094 43.871094 C 62.371094 44.289062 62.289062 44.695312 62.136719 45.078125 C 61.980469 45.449219 61.753906 45.785156 61.460938 46.074219 C 61.179688 46.351562 60.84375 46.578125 60.457031 46.746094 C 60.085938 46.90625 59.671875 46.980469 59.222656 46.980469 Z M 59.246094 46.050781 C 59.527344 46.050781 59.792969 45.992188 60.0625 45.867188 C 60.324219 45.742188 60.558594 45.582031 60.761719 45.378906 C 60.960938 45.164062 61.125 44.914062 61.25 44.636719 C 61.375 44.355469 61.4375 44.074219 61.4375 43.777344 C 61.4375 43.253906 61.34375 42.824219 61.160156 42.5 C 60.984375 42.164062 60.75 41.914062 60.457031 41.757812 C 60.179688 41.605469 59.851562 41.523438 59.480469 41.523438 C 59.199219 41.523438 58.925781 41.59375 58.664062 41.734375 C 58.410156 41.871094 58.195312 42.070312 58.007812 42.3125 C 57.824219 42.546875 57.671875 42.8125 57.566406 43.101562 C 57.457031 43.398438 57.402344 43.699219 57.402344 44.007812 C 57.402344 44.398438 57.480469 44.746094 57.636719 45.054688 C 57.789062 45.367188 57.996094 45.609375 58.265625 45.796875 C 58.546875 45.96875 58.871094 46.050781 59.246094 46.050781 Z M 62.464844 47.003906 C 62.335938 47.003906 62.238281 46.980469 62.160156 46.933594 C 62.078125 46.886719 62.027344 46.851562 61.996094 46.816406 C 61.964844 46.769531 61.953125 46.746094 61.953125 46.746094 C 61.886719 46.132812 61.839844 45.515625 61.8125 44.914062 C 61.777344 44.296875 61.769531 43.660156 61.789062 43.011719 C 61.816406 42.359375 61.863281 41.699219 61.929688 41.015625 C 61.929688 41.015625 61.933594 40.992188 61.953125 40.945312 C 61.980469 40.898438 62.027344 40.851562 62.089844 40.804688 C 62.167969 40.757812 62.277344 40.746094 62.417969 40.757812 C 62.539062 40.757812 62.632812 40.792969 62.699219 40.851562 C 62.757812 40.898438 62.800781 40.960938 62.835938 41.035156 C 62.867188 41.101562 62.882812 41.164062 62.882812 41.222656 C 62.894531 41.269531 62.90625 41.292969 62.90625 41.292969 C 62.871094 41.726562 62.84375 42.152344 62.8125 42.570312 C 62.796875 42.976562 62.789062 43.394531 62.789062 43.824219 C 62.789062 44.257812 62.796875 44.703125 62.8125 45.167969 C 62.84375 45.621094 62.867188 46.097656 62.882812 46.609375 C 62.882812 46.609375 62.871094 46.632812 62.859375 46.679688 C 62.859375 46.726562 62.84375 46.769531 62.8125 46.816406 C 62.796875 46.863281 62.757812 46.910156 62.699219 46.957031 C 62.632812 46.992188 62.558594 47.003906 62.464844 47.003906 Z M 62.464844 47.003906 " fill-opacity="1" fill-rule="nonzero"/><path fill="#ab1010" d="M 66.371094 47.003906 C 66.257812 47.003906 66.164062 46.992188 66.089844 46.957031 C 66.027344 46.910156 65.972656 46.863281 65.925781 46.816406 C 65.878906 46.757812 65.84375 46.714844 65.832031 46.679688 C 65.816406 46.632812 65.808594 46.609375 65.808594 46.609375 C 65.773438 46.238281 65.746094 45.8125 65.71875 45.332031 C 65.699219 44.855469 65.683594 44.34375 65.671875 43.800781 C 65.671875 43.261719 65.675781 42.71875 65.695312 42.175781 C 65.707031 41.617188 65.722656 41.082031 65.738281 40.574219 C 65.769531 40.0625 65.796875 39.609375 65.832031 39.203125 C 65.832031 39.203125 65.839844 39.191406 65.855469 39.15625 C 65.867188 39.109375 65.886719 39.0625 65.902344 39.015625 C 65.933594 38.960938 65.984375 38.914062 66.066406 38.878906 C 66.140625 38.847656 66.234375 38.84375 66.347656 38.855469 C 66.453125 38.855469 66.539062 38.878906 66.601562 38.925781 C 66.679688 38.972656 66.730469 39.035156 66.765625 39.109375 C 66.796875 39.175781 66.8125 39.226562 66.8125 39.273438 C 66.824219 39.320312 66.835938 39.34375 66.835938 39.34375 C 66.820312 39.667969 66.800781 40.074219 66.789062 40.550781 C 66.773438 41.015625 66.753906 41.511719 66.742188 42.035156 C 66.742188 42.5625 66.742188 43.101562 66.742188 43.660156 C 66.742188 44.207031 66.75 44.726562 66.765625 45.238281 C 66.777344 45.75 66.796875 46.214844 66.8125 46.632812 C 66.8125 46.632812 66.800781 46.65625 66.789062 46.703125 C 66.789062 46.738281 66.773438 46.78125 66.742188 46.839844 C 66.726562 46.886719 66.683594 46.929688 66.625 46.957031 C 66.5625 46.992188 66.476562 47.003906 66.371094 47.003906 Z M 68.097656 41.828125 C 67.425781 41.828125 66.789062 41.820312 66.183594 41.804688 C 65.589844 41.792969 65.0625 41.78125 64.597656 41.78125 C 64.597656 41.78125 64.5625 41.78125 64.503906 41.78125 C 64.457031 41.769531 64.394531 41.746094 64.316406 41.710938 C 64.253906 41.679688 64.1875 41.640625 64.128906 41.59375 C 64.085938 41.535156 64.050781 41.464844 64.039062 41.386719 C 64.039062 41.292969 64.050781 41.222656 64.085938 41.175781 C 64.113281 41.128906 64.152344 41.101562 64.199219 41.082031 C 64.246094 41.054688 64.277344 41.035156 64.292969 41.035156 C 64.324219 41.027344 64.339844 41.015625 64.339844 41.015625 C 64.417969 41.003906 64.550781 40.992188 64.738281 40.992188 C 64.921875 40.980469 65.140625 40.96875 65.390625 40.96875 C 65.652344 40.96875 65.933594 40.96875 66.230469 40.96875 C 66.539062 40.957031 66.84375 40.945312 67.140625 40.945312 C 67.449219 40.945312 67.734375 40.945312 68.003906 40.945312 C 68.003906 40.945312 68.015625 40.957031 68.050781 40.96875 C 68.097656 40.96875 68.144531 40.984375 68.1875 41.015625 C 68.246094 41.03125 68.304688 41.054688 68.351562 41.082031 C 68.410156 41.117188 68.457031 41.164062 68.492188 41.222656 C 68.523438 41.269531 68.539062 41.332031 68.539062 41.410156 C 68.539062 41.519531 68.515625 41.605469 68.46875 41.664062 C 68.421875 41.726562 68.363281 41.769531 68.304688 41.78125 C 68.257812 41.796875 68.210938 41.816406 68.164062 41.828125 C 68.121094 41.828125 68.097656 41.828125 68.097656 41.828125 Z M 68.097656 41.828125 " fill-opacity="1" fill-rule="nonzero"/><path fill="#ab1010" d="M 72.570312 46.980469 C 72.152344 46.980469 71.761719 46.90625 71.40625 46.746094 C 71.042969 46.597656 70.734375 46.375 70.472656 46.097656 C 70.222656 45.820312 70.027344 45.507812 69.886719 45.144531 C 69.75 44.773438 69.679688 44.378906 69.679688 43.960938 C 69.679688 43.542969 69.753906 43.144531 69.910156 42.753906 C 70.082031 42.355469 70.308594 42.007812 70.589844 41.710938 C 70.867188 41.402344 71.195312 41.164062 71.566406 40.992188 C 71.941406 40.824219 72.34375 40.734375 72.78125 40.734375 C 73.210938 40.734375 73.609375 40.800781 73.96875 40.921875 C 74.34375 41.046875 74.671875 41.238281 74.949219 41.5 C 75.230469 41.75 75.441406 42.074219 75.578125 42.476562 C 75.730469 42.863281 75.8125 43.328125 75.8125 43.871094 C 75.8125 44.289062 75.726562 44.695312 75.554688 45.078125 C 75.382812 45.449219 75.140625 45.785156 74.832031 46.074219 C 74.535156 46.351562 74.191406 46.578125 73.808594 46.746094 C 73.417969 46.90625 73.003906 46.980469 72.570312 46.980469 Z M 72.570312 46.050781 C 72.863281 46.050781 73.140625 45.992188 73.410156 45.867188 C 73.671875 45.742188 73.90625 45.582031 74.109375 45.378906 C 74.308594 45.164062 74.464844 44.925781 74.578125 44.660156 C 74.699219 44.398438 74.761719 44.101562 74.761719 43.777344 C 74.761719 43.265625 74.675781 42.847656 74.507812 42.523438 C 74.332031 42.199219 74.097656 41.960938 73.808594 41.804688 C 73.507812 41.636719 73.175781 41.546875 72.804688 41.546875 C 72.523438 41.546875 72.257812 41.617188 72.011719 41.757812 C 71.761719 41.894531 71.53125 42.09375 71.335938 42.335938 C 71.148438 42.570312 70.996094 42.835938 70.890625 43.125 C 70.78125 43.421875 70.726562 43.71875 70.726562 44.007812 C 70.726562 44.414062 70.804688 44.769531 70.960938 45.078125 C 71.113281 45.390625 71.324219 45.628906 71.589844 45.796875 C 71.871094 45.96875 72.199219 46.050781 72.570312 46.050781 Z M 72.570312 46.050781 " fill-opacity="1" fill-rule="nonzero"/><path fill="#ab1010" d="M 77.59375 45.402344 C 77.503906 45.402344 77.433594 45.390625 77.386719 45.355469 C 77.339844 45.308594 77.296875 45.257812 77.269531 45.191406 C 77.234375 45.132812 77.210938 45.078125 77.199219 45.03125 C 77.179688 44.984375 77.175781 44.960938 77.175781 44.960938 C 77.15625 44.839844 77.140625 44.746094 77.128906 44.683594 C 77.113281 44.625 77.105469 44.558594 77.105469 44.496094 C 77.105469 44.4375 77.105469 44.34375 77.105469 44.21875 C 77.105469 44.09375 77.105469 43.925781 77.105469 43.707031 C 77.152344 43.214844 77.25 42.777344 77.410156 42.40625 C 77.5625 42.023438 77.78125 41.703125 78.0625 41.453125 C 78.355469 41.210938 78.703125 41.027344 79.113281 40.898438 C 79.421875 40.824219 79.71875 40.792969 79.996094 40.804688 C 80.289062 40.824219 80.558594 40.886719 80.792969 40.992188 C 81.035156 41.082031 81.261719 41.21875 81.46875 41.386719 C 81.46875 41.386719 81.480469 41.402344 81.515625 41.433594 C 81.542969 41.464844 81.574219 41.5 81.605469 41.546875 C 81.636719 41.59375 81.660156 41.652344 81.675781 41.710938 C 81.707031 41.773438 81.707031 41.839844 81.675781 41.894531 C 81.660156 41.960938 81.617188 42.023438 81.5625 42.082031 C 81.480469 42.144531 81.386719 42.175781 81.28125 42.175781 C 81.1875 42.164062 81.09375 42.140625 81 42.105469 C 80.917969 42.074219 80.847656 42.046875 80.792969 42.011719 C 80.746094 41.964844 80.722656 41.941406 80.722656 41.941406 C 80.515625 41.792969 80.289062 41.710938 80.042969 41.710938 C 79.792969 41.699219 79.539062 41.75 79.273438 41.871094 C 78.902344 42.03125 78.609375 42.261719 78.410156 42.570312 C 78.207031 42.882812 78.085938 43.253906 78.039062 43.683594 C 78.003906 43.902344 77.980469 44.074219 77.96875 44.195312 C 77.953125 44.320312 77.945312 44.421875 77.945312 44.496094 C 77.945312 44.578125 77.945312 44.652344 77.945312 44.726562 C 77.945312 44.808594 77.953125 44.914062 77.96875 45.054688 C 77.96875 45.054688 77.957031 45.089844 77.945312 45.144531 C 77.929688 45.191406 77.898438 45.238281 77.851562 45.285156 C 77.804688 45.332031 77.71875 45.371094 77.59375 45.402344 Z M 77.617188 47.003906 C 77.527344 47.003906 77.4375 46.992188 77.363281 46.957031 C 77.296875 46.910156 77.246094 46.863281 77.199219 46.816406 C 77.164062 46.769531 77.136719 46.738281 77.105469 46.703125 C 77.089844 46.65625 77.082031 46.632812 77.082031 46.632812 C 77.035156 46.167969 76.996094 45.71875 76.964844 45.285156 C 76.949219 44.839844 76.941406 44.398438 76.941406 43.960938 C 76.941406 43.515625 76.953125 43.058594 76.988281 42.59375 C 77.019531 42.117188 77.046875 41.617188 77.082031 41.105469 C 77.082031 41.105469 77.082031 41.09375 77.082031 41.058594 C 77.09375 41.03125 77.117188 40.992188 77.152344 40.945312 C 77.179688 40.886719 77.234375 40.839844 77.316406 40.804688 C 77.390625 40.777344 77.484375 40.757812 77.59375 40.757812 C 77.699219 40.757812 77.789062 40.78125 77.851562 40.828125 C 77.929688 40.875 77.980469 40.9375 78.015625 41.015625 C 78.042969 41.078125 78.066406 41.128906 78.085938 41.175781 C 78.097656 41.222656 78.109375 41.246094 78.109375 41.246094 C 78.074219 41.664062 78.050781 42.09375 78.039062 42.523438 C 78.019531 42.941406 78.015625 43.375 78.015625 43.824219 C 78.015625 44.257812 78.019531 44.703125 78.039062 45.167969 C 78.050781 45.632812 78.066406 46.117188 78.085938 46.609375 C 78.085938 46.609375 78.085938 46.632812 78.085938 46.679688 C 78.085938 46.726562 78.066406 46.78125 78.039062 46.839844 C 78.003906 46.886719 77.953125 46.929688 77.875 46.957031 C 77.8125 46.992188 77.722656 47.003906 77.617188 47.003906 Z M 77.617188 47.003906 " fill-opacity="1" fill-rule="nonzero"/></svg>